<svg xmlns="http://www.w3.org/2000/svg" viewBox="0 0 1440 263" width="1440" height="263">
	<defs>
		<linearGradient id="grd1" gradientUnits="userSpaceOnUse"  x1="171420.302" y1="21024.735" x2="20798.007" y2="32457.373">
			<stop offset="0" stop-color="#7c85e1" stop-opacity="0" />
			<stop offset="40.849" stop-color="#2e358e" stop-opacity="0.86" />
			<stop offset="100" stop-color="#7c85e1"  />
		</linearGradient>
	</defs>
	<style>
		tspan { white-space:pre }
		.shp0 { fill: #212880 } 
		.shp1 { fill: url(#grd1) } 
		.shp2 { opacity: 0.561;fill: #535fd7 } 
		.shp3 { fill: #93f4fe } 
		.shp4 { fill: #61effd } 
		.shp5 { fill: #535fd7 } 
	</style>
	<g id="Layer">
		<path id="Layer" class="shp0" d="M851,64.35c-3.91,1.01 -6.09,1.64 -10.11,3.06c0.1,0.28 0.3,0.31 0.53,0.24c-11.66,4.26 -19.47,6.72 -29.28,10.42c-0.7,0.51 -0.07,1.22 -0.26,1.54l-5.1,1.93c-0.34,-1.72 -1.32,-1.33 -2.06,-1.75c-0.75,0.02 0.74,1.43 0,1.45c0.3,0.68 0.87,0.45 1.46,0.17c-6.33,3.25 -16,7 -25.1,11.01c0.09,0.69 -1.5,0.38 -0.81,1.43c-4.4,-0.79 -6.74,2.8 -10.72,3.61c0.92,0.81 -0.94,0.2 -1.28,1.62c-0.6,0.26 -0.38,-0.12 -0.49,-0.54c-13.44,5.98 -27.62,12.01 -36.51,17.25c-2.13,0.15 -4.26,0.85 -6.57,2.76c-4.27,1.52 -9.17,2.7 -12.3,6.4c-0.27,-0.52 -0.01,-0.67 0.27,-0.8c-2.09,0.24 -5.39,1.48 -7.62,2.82c-0.53,0.21 0.57,0.72 0.5,1.62c-0.45,0.35 -1.72,0.09 -1.61,0.85c-1.44,-0.74 1.38,-0.48 0.58,-1.6c-1.84,-0.26 -3.28,1.13 -4.57,2.48c-7.71,1.03 -15.79,6.2 -21.41,7.81c-0.24,0.99 1.25,0.37 0.48,0.93c-0.45,-0.02 -0.41,0.37 -0.35,0.78c-0.98,-0.02 -0.12,-1.02 -0.87,-1.53c-4.52,2.15 -6.75,2.47 -9.73,4.85c0.34,-1.36 -0.44,0.06 -0.89,-0.52c-0.82,1.1 -1.18,2.62 -2.87,2.94c-0.25,-1.1 1.49,-0.97 1.98,-2.09c-1.76,0.37 -3.42,0.66 -5.05,1.33c-1.64,0.63 -3.25,1.63 -4.93,3.47c0.47,1.38 1.5,-0.72 1.7,0.76c-1.62,1.51 -2.94,2.31 -4.78,1.76c0.02,-0.37 0.49,-0.29 0.43,-0.74c0,0.6 -2.82,0.88 -2.57,2.71c-1.39,-0.81 -2.37,-0.08 -2.43,2.01c-0.76,-0.35 -1.84,-0.18 -2.26,-1.08c-0.26,0.34 0.15,0.81 -0.68,1.11c1.19,1.4 1.9,0.78 4.04,0.18c0.42,-0.7 -0.23,-0.59 -0.2,-1.68c1.17,0.12 0.36,1.19 1.53,1.52c2.02,-0.62 1.92,-1.68 4.04,-1.9c-0.21,2.5 -2.75,2.03 -4.23,2.61c-0.34,0.66 -1.72,1.84 -1.66,1.91c-0.31,0.76 -0.61,-0.28 -0.38,-0.98c-2.46,0.75 -2.34,2.33 -2.58,3.73c-0.82,-0.28 -1,-0.94 -0.75,-1.97c-2.11,1.11 -5.66,0.47 -5.91,4.28c-0.3,-0.2 -0.34,-0.75 -0.87,-0.6c-0.34,1.73 -2.22,-0.18 -2.61,2.22c-0.48,-0.57 -1.06,-0.6 -1.67,-0.41c-0.2,0.23 -0.54,0.36 -0.89,0.41c-0.56,0.32 -1.11,0.71 -1.56,0.91l-0.08,-1.69c-1.63,0.43 -2.89,1.32 -4.37,1.88c0.94,1.55 2.6,-0.96 4.14,-0.85c-2.04,1.5 -4.06,2.51 -6.16,3.41c-2.11,0.88 -4.27,1.75 -6.69,2.63c2.93,-2 5.4,-2.63 8.46,-4.17c-0.68,-0.86 -1.39,0.77 -1.97,-0.3c-1.59,1.58 -5.54,3.18 -6.75,2.43c-0.95,1.86 -3.56,1.93 -6.1,3.26c-0.98,-0.7 0.87,-0.76 0.91,-1.34c-0.05,-1.13 -1.4,0.99 -1.12,-0.7c1.34,-0.06 1.28,-0.42 1.69,0.72c0.06,-1.51 0.8,-0.23 0.91,-1.67c0.61,-0.15 0.53,0.5 0.54,1.03c0.22,-0.93 0.36,-2.05 1.46,-1.33c-0.04,-1.97 -2.64,-0.73 -2.85,0.28c-1.43,-0.44 -3.17,-0.4 -4.59,0.51c-0.62,-0.09 -0.57,-0.89 -0.48,-1.73c-0.23,0.95 -2.27,-1.09 -1.58,-2.14c-1.72,-1.37 -2.14,-0.78 -3.52,-1.92c0.92,-0.85 -0.21,-0.43 0.69,-1.65c-0.15,-0.98 -1.01,-1.21 -1.51,-1.8c-0.08,-1.5 1,-1.33 1.29,-2.3c-1.17,-0.11 0.51,-1.51 -1.27,-1.1c0.48,-0.81 1.35,-1.24 0.15,-1.69c-0.09,-1.28 1.08,-0.67 1.21,-1.62c0.06,-1.19 -0.63,-1.56 -0.56,-2.75c-0.04,-0.82 0.54,-0.7 0.4,-1.67c0.62,-0.49 1.25,-0.97 1.89,-1.42c0.64,-0.46 1.3,-0.9 1.97,-1.33c0.67,-0.42 1.34,-0.83 2.03,-1.22c0.69,-0.39 1.38,-0.76 2.09,-1.12c2.81,-1.54 5.73,-2.75 8.67,-3.75c9.17,-3.16 18.59,-7.03 27.96,-10.43c2.84,-0.98 5.89,-2.14 8.96,-3.1c3.07,-1.1 6.17,-2.07 9.09,-3.06c10.04,-3.34 17.67,-6.44 25.73,-9.77c2.35,-0.98 4.7,-1.96 7.05,-2.95c2.35,-0.99 4.69,-1.98 7.03,-2.97c2.34,-1 4.68,-2 7.02,-3c2.34,-1.01 4.68,-2.02 7.01,-3.03c9.31,-4.03 20.2,-10.03 30.22,-13.45c4.58,-1.56 -0.51,0.87 -1.4,1.29c-2.33,1.1 -4.58,2.12 -6.78,3.11c2.21,-0.74 4.82,-1.96 6.28,-2.35c-1.64,0.92 -4.58,3.5 -6.7,2.53c-6.76,3.02 -13.1,5.74 -20.11,9.4c1.28,0.01 3.47,-0.84 4.82,-1.76c-7.41,5.09 -17.62,8.4 -25.87,11.81c0.03,-1.03 0.77,-0.53 1.67,-1.23c-3.51,0.08 -5.54,2.44 -9.49,3.26c1.46,1.16 2.48,-0.93 4.78,-1.09c0.38,-0.09 0.85,-0.43 1.04,0.04l-0.94,0.29c-7.37,4.09 -15.65,6.44 -22.38,9.97c5.24,-1.42 11.47,-2.66 17,-6.59c-0.06,0.33 -0.12,0.66 0.18,0.65c5.26,-2.04 10.28,-3.93 14.88,-6.06c-5.96,3.64 -12.61,5.91 -19.39,9.11c3.67,-0.25 7.01,-2.68 11.5,-3.75c0.55,0 0.31,-0.6 0.18,-1.12c3.36,-0.04 6.35,-1.56 9.29,-2.63c22.32,-8.31 41.08,-18.03 66.82,-28.95c1.07,-0.45 2.15,-0.72 3.59,-1.45c1.12,-0.57 2.67,-0.33 3.85,-0.82c3,-1.25 5.63,-4.28 8.8,-3.14c0.79,-0.53 2.95,-1.06 2.06,-0.45c-3.49,2.45 -7.34,3.1 -10.24,4.44c-12.2,5.61 -24.25,10.05 -34.78,15.13c9.83,-2.46 18.91,-8.52 27.61,-11.51c4.04,-1.38 8.81,-3.66 12.6,-4.69c17.24,-4.74 33.48,-14.59 52.12,-17.03c-0.73,1.16 -1.57,1.28 -1.97,1.69c2.46,0.05 7.62,-2.61 11.01,-1.93zM842.5,67.26c-0.31,0.11 -0.62,0.23 -0.92,0.34c0.31,-0.13 0.66,-0.36 0.92,-0.34zM727.09,100.39c0.02,-0.02 0.05,-0.03 0.07,-0.05c-0.02,0.02 -0.05,0.03 -0.07,0.05zM841.58,67.6c-0.05,0.02 -0.11,0.04 -0.16,0.06c0.05,-0.02 0.1,-0.04 0.16,-0.06zM656.8,152.85c1.12,-0.43 1.58,-0.57 1.75,-1.63c0.31,0.28 0.5,0.78 1.23,0.36c-0.19,0.46 -0.57,0.74 -0.58,1.37c-0.27,0 -0.16,-0.28 -0.03,-0.3c-0.64,-0.15 -1.67,1.83 -2.37,0.2zM668.97,148.74c-0.06,0.32 -0.46,0.36 -0.21,0.95c-0.59,-0.16 -1.87,-1.04 -1.72,0.12c-1.17,-1.5 1.2,-0.51 1.92,-1.08zM741.89,93.06c-1.54,2.57 -4.38,2.43 -6.48,3.94c0.56,-1.59 4.84,-2.26 6.48,-3.94zM622.86,165.18c-0.34,-0.04 -0.65,-0.1 -0.56,-0.66c-1.54,-0.08 -2.02,1.16 -3.37,1.28c0,-0.08 0,-0.17 0.01,-0.26c-1.21,-0.16 -0.83,2.37 -0.03,1.39c0.02,0.42 0.07,0.82 0.56,0.7c0.01,-0.08 0.01,-0.15 0.01,-0.22c0.04,0.03 0.08,0.05 0.13,0.07c0.48,-0.92 1.34,-2.3 2.19,-0.98c0.03,-0.61 0.16,-1.1 0.52,-1.31c0.01,0.33 0.49,0.41 0.55,0zM618.93,165.8c0.03,0.71 0.53,0.88 0.55,1.61c-0.45,-0.29 -0.63,-0.9 -0.72,-1.61c0.06,0 0.12,0 0.17,-0.01zM628.81,162.59c-1.52,0.26 -2.89,0.52 -2.88,2.17c1.27,-0.64 1.06,-0.54 2.28,-0.04c-0.26,-2.15 1.01,-0.44 1.35,-1.77c0.37,-0.02 0.28,0.6 0.59,0.66c0.9,-0.57 0.73,-1.37 2.22,-0.81c0.24,-1.7 1.92,-0.43 3.01,-1.54l-0.04,-0.69c-0.17,-0.01 -0.34,-0.03 -0.3,-0.33c-0.75,0.35 -0.93,1.34 -1.87,1.49c-0.04,-0.69 -0.79,-0.4 -0.63,-1.36c-0.54,1.61 -2.2,1.92 -3.72,2.21zM643.82,155.38l-1.35,0.01c0.12,1.03 -0.78,1.03 -1.39,1.33c-0.18,-0.62 -0.56,-1.12 -0.49,-1.62c-0.38,0.93 -0.84,1.9 -0.2,2.57c-0.61,-0.59 -0.53,0.41 -0.94,0.71c0.39,0.3 3.29,0 1.26,-0.67c1.99,0.62 2.58,-0.77 4.3,-0.36c-0.18,-1.01 -0.82,-1.28 -1.19,-1.98zM640.58,155.1c0.05,-0.12 0.1,-0.25 0.15,-0.37c-0.08,0.12 -0.13,0.24 -0.15,0.37zM640.38,157.67c0.01,0.01 0.03,0.03 0.04,0.04c-0.01,-0.01 -0.03,-0.03 -0.04,-0.04zM659.8,152.58c0.55,0.72 0.67,0.57 1.42,0.14c0.07,1.33 -1.05,0.21 -1.79,0.99c0.02,-0.47 0.39,-0.62 0.38,-1.12zM643.85,160.57c0.04,-0.26 0.24,-0.35 0.23,-0.67c-1.11,-0.4 -0.3,1.3 -1.2,1.14c0.58,-1.36 -0.63,0.15 -1.46,-0.06c0.91,-0.98 1.87,-1.25 2.65,-1.7c0.42,-0.17 0.48,1.68 -0.21,1.29zM661,150.32c0.53,0.49 1.03,-0.41 2.08,-0.26c-0.54,1.37 -1.65,1.14 -1.93,2.28c-0.86,-0.37 -0.26,-1.64 -0.15,-2.02zM665.13,149.25c0.21,-0.09 0.27,0.1 0.33,0.29c0.29,-0.55 0.04,-2.26 0.97,-1.47c0.18,0.84 -1.01,0.49 -0.38,1.73c-0.49,0.18 -0.82,0.04 -0.92,-0.55zM664.39,149.62c-0.64,-0.37 0.73,-2.15 1.26,-1.54c0.2,1.06 -0.99,0.89 -1.26,1.54zM668.35,147.55l0.2,1.03c-0.49,0.01 -1.27,0.6 -1.2,-0.49c0.49,-0.04 0.48,-0.53 1,-0.54zM674.57,146.09c0.29,0.04 0.34,0.62 0.68,0.57c-0.13,0.73 -1.47,0.45 -1.51,1.26c-0.87,-0.63 0.3,-1.68 1.01,-1.18l-0.17,-0.65zM673.01,146.08c-0.55,-0.18 -2.68,0.37 -2.58,1.71c-0.59,-0.73 -0.71,-0.56 -1.47,-0.07c-0.39,-0.95 0.42,-0.84 0.29,-1.56c1.63,0.81 2.93,-2.26 3.76,-0.07zM689.72,140.24c0.88,-0.56 0.62,1.42 0.95,2.09c-0.75,0.2 -1.16,-1.57 -0.95,-2.09zM698.86,135.72c-0.22,0.63 -0.79,0.99 -1.6,1.19c-0.06,-0.88 1.2,-1.46 1.6,-1.19zM680.16,140.39c0,0 0,0 0,0c0,0 0,0 0,0zM680.23,141.46c-0.97,-1.44 -2.93,2.62 -3.27,-0.6c1.46,1.57 1.98,-1.63 3.2,-0.48c-0.05,0.3 -0.09,0.6 0.07,1.08zM701.57,134.21c-0.26,0.78 -1.52,1.12 -2.22,2.09c0.2,-0.51 0.52,-0.93 0.35,-1.72c1.04,0.13 1.1,-0.94 1.88,-0.37zM683.86,138.74c0.42,0.88 -0.35,0.81 -0.18,1.49c-0.53,-0.2 -0.96,-1.04 -0.68,-1.64c0.25,0.13 0.51,0.25 0.86,0.16zM682.72,139.37c0.05,0.68 -0.35,0.99 -0.11,1.83c-0.89,-0.03 -0.76,-1.02 -1.11,-1.18c-0.22,-0.73 0.88,-0.37 1.21,-0.65zM717.63,127.35c0.1,1.28 -1.98,1.05 -2.57,1.84c0,-1.79 1.4,-0.84 2.57,-1.84zM716.29,122.66c0,0 0,0 0,0.01c0,0 0,0 0,0c-0.06,0.32 0.05,0.76 0.29,1.29l-1.39,0.37c-0.43,-1.56 0.75,-0.65 1.1,-1.66c0,0 0,0 0,-0.01zM823.72,75.16c-1.86,1.99 -6.21,2.26 -10.73,4.56c1.93,-1.58 7.39,-3.09 10.73,-4.56zM717.95,107.28c-0.38,-1.43 2,-0.97 2.77,-1.61c1.34,0.32 -2.59,0.8 -2.77,1.61zM730.9,99.02c-0.1,1.11 -2.69,0.57 -2.79,1.68c-0.99,-0.81 2.47,-1.71 2.79,-1.68zM731.71,97.78c0.18,-0.14 0.28,0.04 0.37,0.23c3.29,-2.03 0.7,1.75 -0.37,-0.23zM776.33,79.29c0.23,-0.93 2.36,-1.67 4.16,-2.35c1.36,-0.52 4.44,-1.67 2.5,-0.54c-1.84,1.03 -4.78,2.26 -6.67,2.89z" />
		<path id="Layer" class="shp1" d="M-49.91,-90.77c4.9,-20.42 12.65,-41.36 23.09,-61.32c5.02,-0.22 10.76,-2.78 17.11,-6.49c3.18,-1.86 6.51,-4.01 9.98,-6.31c3.39,-2.28 7.07,-4.75 10.96,-7.36c3.82,-2.56 7.77,-5.15 11.82,-7.65c4.05,-2.5 8.15,-4.9 12.49,-7.21c8.61,-4.58 17.33,-8.36 26.09,-10.87c8.81,-2.53 17.41,-3.74 25.45,-3.43c8.05,0.3 15.54,2.12 22.34,5.4c6.8,3.27 12.91,8.01 18.4,14c2.75,2.99 5.35,6.29 7.81,9.86c2.59,3.58 5.08,7.43 7.49,11.51c0.14,0.23 0.27,0.47 0.4,0.7c0.13,0.23 0.27,0.47 0.4,0.71c0.13,0.24 0.26,0.47 0.39,0.71c0.13,0.24 0.26,0.48 0.38,0.71c0.14,0.24 0.28,0.49 0.41,0.74c0.14,0.25 0.27,0.49 0.41,0.74c0.13,0.25 0.27,0.49 0.4,0.74c0.13,0.25 0.26,0.5 0.39,0.75c0.26,0.51 0.53,1.03 0.78,1.55c0.26,0.52 0.51,1.04 0.76,1.56c0.25,0.52 0.5,1.05 0.74,1.57c0.24,0.53 0.48,1.05 0.71,1.58c0.9,2.16 1.99,4.34 2.98,6.57c1.02,2.22 1.92,4.51 2.98,6.77c4.1,9.1 8.72,18.3 13.99,26.71c5.23,8.42 11.23,15.99 17.6,22.1c6.35,6.12 12.96,10.83 19.54,13.54c3.76,1.67 7.88,2.82 11.83,3.75c4.16,0.81 8.09,1.36 12.29,1.57c8.19,0.52 16.47,-0.19 24.22,-1.43c15.67,-2.53 29.5,-7.34 40.93,-9.8c8.96,-1.95 16.12,-2.39 23.57,-3.05c7.46,-0.68 15.19,-1.61 24.9,-4.95c5.86,-2.03 13.34,-4.66 21.08,-7.55l5.89,-2.23l6.01,-2.46c4.01,-1.66 8,-3.37 11.88,-5.06c5.21,-2.23 10.4,-4.62 15.48,-6.95l14.94,-6.79c9.85,-4.73 19.23,-8.9 28.38,-13.44c18.2,-8.59 35.06,-17.21 50.55,-24.84l22.27,-11.18l5.28,-2.54l5.15,-2.62c3.39,-1.72 6.72,-3.27 9.98,-4.8c12.99,-6.41 24.8,-11.79 35.81,-16.01c3.86,-1.59 7.56,-3 11.21,-4.01c3.57,-1.28 7.04,-2.33 10.5,-3.08c3.36,-1.03 6.68,-1.84 10,-2.42c1.74,-0.4 3.52,-0.81 5.28,-1.14c1.77,-0.34 3.47,-0.6 5.52,-1.05c1.97,-0.39 3.94,-0.75 5.91,-1.09c0.95,-0.14 2.03,-0.36 3.14,-0.59l3.28,-0.64l3.29,-0.61c1.09,-0.2 2.18,-0.39 3.42,-0.66l7.24,-1.51c2.33,-0.45 5.03,-1.09 7.68,-1.7l8,-1.89l8.64,-2.26c1.45,-0.4 2.9,-0.79 4.36,-1.19l4.68,-1.35c1.67,5.36 0.17,6.1 1.14,10.44c2.68,0.88 5.12,1.21 7.35,1.16c2.24,-0.06 4.22,-0.48 6.29,-1.22c4.01,-1.45 7.39,-3.82 10.52,-5.9c-4.11,-8.32 -11.34,4.59 -15.46,-3.29c3.32,-4.16 7.55,-7.74 12.29,-10.71c4.87,-3.02 10.68,-5.57 16.55,-7.51c6.23,-2.03 12.75,-3.53 19.33,-4.51c6.89,-1.03 13.5,-1.51 19.97,-1.49c0.74,3.3 -1.53,3.13 -2.58,4.22c3.89,0.21 8.19,0.26 12.41,0.22c2.13,-0.02 4.28,-0.07 6.45,-0.15c2.22,-0.1 4.47,-0.2 6.75,-0.31c4.66,-0.26 9.4,-0.62 14.21,-1.07l7.46,-0.73c2.56,-0.28 5.14,-0.56 7.74,-0.84c10.16,-1.23 21.65,-2.62 32.96,-4.26c11.93,-1.5 23.88,-3.29 36.56,-4.84c25.08,-3.18 50.7,-5.92 75.9,-7.66c25.19,-1.75 49.96,-2.5 73.21,-2.01c2.98,2.69 8.38,4.85 14.97,6.56c6.58,1.81 14.35,3.02 22.09,3.9c15.48,1.67 30.95,1.65 36.78,-1.61c14.53,5.62 31.69,10.43 50.33,15.7c9.33,2.59 19.06,5.29 29.05,8.07c5.05,1.42 10.16,2.85 15.43,4.42l7.9,2.32c2.68,0.83 5.37,1.66 8.07,2.49c21.59,6.7 44.38,14.7 66.89,24.71c22.52,10.03 44.72,22.1 64.48,36.06c4.63,3.32 9.03,6.32 13.35,9.48c4.3,3.12 8.44,6.14 12.46,9.05c8.04,6.07 15.46,11.71 22.39,17.65c6.91,5.74 13.29,11.88 19.12,17.98c5.83,6.35 11.2,12.92 15.85,19.99c-4.22,-2.98 -8.65,-5.93 -13.06,-9c-2.21,-1.53 -4.44,-3.07 -6.69,-4.62l-6.77,-4.48c-4.54,-3.02 -9.14,-6.11 -13.8,-9.03c-4.65,-2.94 -9.37,-6.07 -14.12,-8.9c-19.01,-11.76 -38.75,-22.92 -58.52,-32.98c-39.58,-20.18 -79.17,-35.85 -114.23,-46.34c-4.83,12.44 9.01,6.81 13.26,10.56c-0.9,9.47 -9.4,-4.98 -10.22,4.55c14.79,8.07 35.32,16.62 56.82,25.87c21.47,9.16 43.9,19.19 61.74,27.89c-7.24,10.31 -7.17,-5.02 -15.48,4.15c-15.47,-11.97 -32.79,-21.22 -50.43,-28.32c-17.66,-7.12 -35.64,-12.14 -52.95,-16.08c-17.33,-3.93 -34.04,-6.88 -49.52,-9.85c-7.78,-1.61 -15.4,-3.02 -22.73,-4.89c-1.79,-0.41 -3.58,-0.85 -5.36,-1.3c-1.78,-0.46 -3.56,-0.93 -5.32,-1.43c-1.77,-0.5 -3.53,-1.02 -5.29,-1.56c-1.76,-0.54 -3.51,-1.1 -5.25,-1.68c15.78,8.19 31.94,14.78 48.44,20.96c16.52,6.09 33.84,11.69 51.82,17.72c17.97,6.03 36.61,12.53 55.51,20.48c18.87,7.94 38.01,17.35 56.5,29.03c27.57,17.3 55.01,41.03 78.68,67.5c23.64,26.14 42.49,54.01 58.97,79.33c3.39,5.18 12.84,9.69 15.44,15.6c2.53,6.14 -2.67,14.65 0.37,19.71c1.16,1.92 10.22,-3.13 10.12,-3.46c1.38,3.78 -7.61,5.02 -7.66,7.5c-0.2,5.35 3.7,10.68 7.46,16.51c3.6,5.62 7.41,11.48 7.58,17.51c-0.29,-2.28 -2.32,0.44 -3.87,4.24c-1.68,4.13 -2.84,9.45 -0.45,11.37c-5.61,0.2 -12.12,-12.32 -7.31,0.88c-2.86,-3.45 -7.38,-8.56 -9.95,-13.79c-2.59,-5.22 -3.02,-10.8 2.74,-15.67c-1.78,-2.08 -6.46,1.43 -10.19,3.13c-2.61,-8.6 -5.44,-16.41 -9.01,-23.53c-1.77,-3.58 -3.51,-7.12 -5.55,-10.48c-0.51,-0.85 -1.02,-1.7 -1.54,-2.54c-0.52,-0.84 -1.04,-1.68 -1.57,-2.52c-0.53,-0.84 -1.06,-1.67 -1.6,-2.5c-0.54,-0.83 -1.08,-1.66 -1.63,-2.48c-9.08,-13.22 -20.02,-26.44 -35.17,-42.8c8.22,19.64 18.41,33.52 27.92,47.55c2.31,3.53 4.6,7.04 6.79,10.59c2.18,3.56 4.09,7.27 5.91,11.03c0.23,0.47 0.45,0.95 0.67,1.42c0.22,0.48 0.44,0.95 0.65,1.43c0.21,0.48 0.42,0.96 0.63,1.44c0.21,0.48 0.41,0.97 0.61,1.45c0.19,0.5 0.37,1 0.55,1.5c0.18,0.5 0.36,1.01 0.53,1.51c0.17,0.5 0.34,1.01 0.5,1.52c0.16,0.51 0.32,1.02 0.48,1.53c1.23,4.13 2.28,8.37 2.79,12.91c-8.15,-1.72 -13.38,-4.71 -18.12,-7.03c-4.72,-2.32 -9.28,-3.71 -15.75,-2.05c5.62,-4.68 8.51,-3.82 12.83,-5.78c-2.82,-3.91 -4.72,-7.21 -6.24,-10.02c-1.56,-2.79 -2.65,-5.15 -3.71,-7.24c-1.06,-2.09 -2.08,-3.92 -3.49,-5.63c-1.43,-1.69 -3.31,-3.22 -5.99,-4.76c-7.37,4.71 -5.29,5.51 -2.44,6.1c2.86,0.58 6.45,1.04 1.97,4.75c-5.49,1.59 -9.31,-3.12 -12.22,-9.02c-2.93,-5.87 -5.36,-12.73 -7.25,-15.27c7.69,-2.26 8.96,1.98 9.76,5.8c0.86,3.82 1.1,7.41 7.6,4.3c4.1,-4.79 -3.23,-4.96 -1.3,-1.66c-1.99,-3.2 -3.98,-9.77 -7.04,-16.15c-3.12,-6.3 -7.66,-12.12 -14.15,-13.34c-4.46,-3.32 -2.24,6.21 -10,9.65c-4.93,-7.21 -10.12,-13.15 -15.52,-18.07c-5.26,-5.05 -10.7,-9.09 -15.67,-13.18c-4.98,-4.08 -9.8,-7.89 -13.94,-12.57c-2.1,-2.26 -4.08,-4.66 -5.91,-7.38c-1.83,-2.72 -3.52,-5.71 -5.1,-8.98c-6.64,-3.12 -5.01,7.95 -9.17,6.47c-4.5,-2.05 -8.56,-4.1 -10.52,-7.34c-1.96,-3.24 -1.87,-7.68 1.99,-14.24c-4.77,4.55 -11.63,6.86 -16.47,5.9c-4.84,-0.99 -7.82,-5 -5.04,-13.68c-12.68,6.89 -22.92,-1.69 -34.28,-10.13c-11.24,-8.46 -23.54,-16.35 -36.2,-8c-4.26,-1.93 3.15,-11.35 4.39,-13.19c-3.72,-0.69 -7.92,-1.08 -12.39,-1.44c-4.46,-0.27 -9.23,-0.6 -14.13,-1.16c-9.8,-1.09 -20.15,-3.43 -30.32,-9.57c-2.66,0.5 -3.39,8.16 -4.83,13.17c-5.47,-0.89 -7.4,-5.95 -10.76,-9.45c4.32,-9.87 5.26,4.99 10.53,2.24c1.96,-10.62 -7.57,-7.64 -12.66,-9.74c-2.71,0.73 -1.34,5.96 0.39,7.14c-4.93,1.72 -9.56,2.2 -14.1,1.93c-4.54,-0.26 -9,-1.13 -13.52,-2.32c-4.52,-1.21 -9.12,-2.46 -13.91,-3.54c-4.78,-1.09 -9.78,-1.77 -15.04,-1.68l1.69,-13.8c-1.04,-0.14 -2.08,-0.27 -3.13,-0.39c-1.04,-0.13 -2.09,-0.25 -3.13,-0.37c-1.04,-0.12 -2.09,-0.23 -3.13,-0.34c-1.05,-0.11 -2.09,-0.22 -3.14,-0.32c0.98,5.31 5.21,5.55 8.14,7.87c-3.45,3.31 -7.63,4.4 -12.3,4.26c-2.34,-0.06 -4.81,-0.42 -7.38,-0.9c-2.57,-0.44 -5.24,-1.02 -7.98,-1.59c-5.47,-1.17 -11.22,-2.16 -16.89,-1.86c-5.66,0.24 -11.24,1.91 -16.27,5.99c-8.31,-21.31 -23.14,-18.92 -42.61,-17.58c-11.17,0.81 -11.71,9.49 -17.66,7.6c-2.03,-0.64 -5.74,0.2 -10.36,1.65c-4.62,1.52 -10.15,3.56 -15.9,5.28c-5.74,1.81 -11.71,3.11 -17.29,3.2c-5.58,0.1 -10.8,-1.24 -15.11,-4.91c-5.69,3.81 -12.31,6.93 -19.34,10.01c-0.91,0.39 -1.83,0.77 -2.74,1.14c-0.92,0.37 -1.84,0.73 -2.76,1.09c-0.92,0.36 -1.85,0.7 -2.78,1.04c-0.93,0.34 -1.86,0.67 -2.8,0.99c-3.84,1.34 -7.69,2.73 -11.74,3.99c-8.14,2.5 -16.43,4.99 -25.17,7.3l-13.07,3.53l-13.27,3.51c-17.82,4.69 -35.65,9.56 -52.36,15.07c-8.43,2.79 -16.4,5.67 -24.16,8.9c-7.6,3.13 -14.98,6.66 -21.69,10.42c-4.82,2.71 -8.85,6.85 -12.95,9.8c-4.11,2.96 -8.45,4.98 -13.62,3.15c-4.4,-1.55 -6.61,14.86 -9.92,16.12c-2.98,1.12 -7.24,-1.96 -11.43,-3.73c-4.23,-1.71 -8.29,-2.33 -11.36,4c0.36,5.94 2.05,6.34 3.81,6.48c-1.3,3.45 -5.77,7.92 -6.56,-6.07c-1.64,2.57 -3.44,3.98 -5.22,4.78c-1.79,0.79 -3.58,1.06 -5.29,1.49c-3.42,0.87 -6.44,2.43 -8.53,10.17c-3.82,-1.07 -8.12,-0.47 -12.79,1.06c-2.34,0.75 -4.76,1.79 -7.26,2.86c-2.51,1.01 -5.09,2.16 -7.72,3.35c-10.47,4.95 -21.88,9.61 -31.38,9.1c0.55,4.26 1.74,7.12 4.27,6.93c-0.77,7.46 -2.58,6.28 -4.21,5.14c-1.63,-1.16 -3.09,-2.37 -3.38,5.21c-2.75,-0.65 -0.61,-11.82 -2.57,-14.03c-1.2,0.6 -1.56,3.43 -3.04,3.35c-2.24,1.43 0.42,4.46 -0.37,10.44c-1.31,-2.62 -2.02,-6.41 -2.56,-10.55c-3.83,0.68 1.78,6.07 -0.57,13.9c-5.43,1.67 -3.11,-12.46 -8.43,-10.78c-3.34,0.35 1.43,8.87 -1,17.36c-4.06,0.93 -8.25,1.89 -12.53,2.87c-4.3,0.95 -8.75,2.19 -13.26,3.18c-1.16,0.27 -2.32,0.54 -3.47,0.83c-1.15,0.29 -2.31,0.58 -3.46,0.88c-1.15,0.3 -2.3,0.61 -3.44,0.93c-1.15,0.32 -2.29,0.65 -3.43,0.99c-2.34,0.68 -4.71,1.48 -7.07,2.22c-0.6,0.18 -1.2,0.37 -1.8,0.56c-0.6,0.19 -1.19,0.38 -1.79,0.58c-0.6,0.2 -1.19,0.4 -1.78,0.6c-0.59,0.2 -1.19,0.41 -1.78,0.62c-1.24,0.44 -2.47,0.89 -3.69,1.36c-1.22,0.47 -2.44,0.95 -3.65,1.45c-1.21,0.5 -2.42,1.01 -3.62,1.54c-1.2,0.53 -2.39,1.07 -3.58,1.63c-4.88,2.24 -9.78,4.68 -14.72,7.59c-4.94,2.88 -9.93,6.25 -14.89,9.92c-4.96,3.64 -9.93,7.76 -14.91,12.42c-4.2,-11.32 -9.16,-7.78 -15.04,-2.64c-5.85,5.2 -12.68,12.22 -19.76,8.2c-8.49,3.3 -20.08,11.8 -32.42,19.98c-12.23,8.02 -25.1,15.42 -35.22,16.94c-3.96,0.52 -3.54,-6.46 -5.68,-5.83c-19.02,5.72 -42.55,17.89 -68.58,28.37c-12.96,5.18 -26.64,10.19 -40.31,13.52c-6.86,1.72 -13.77,3.12 -20.67,4.1c-3.5,0.43 -7.05,0.7 -10.56,0.88c-3.59,0.12 -7.27,0.04 -10.88,-0.14c-14.17,-0.91 -29.79,-1.86 -46.58,-4.34c-16.77,-2.48 -34.75,-6.5 -53.25,-13.64c-18.46,-7.12 -37.48,-17.41 -55.42,-32.06c-8.95,-7.3 -17.63,-15.75 -25.66,-25.22c-0.51,-0.6 -1.01,-1.21 -1.51,-1.82c-0.5,-0.61 -1,-1.22 -1.49,-1.83c-0.49,-0.61 -0.98,-1.23 -1.47,-1.85c-0.49,-0.62 -0.97,-1.24 -1.45,-1.86l-2.85,-3.78l-1.42,-1.95l-1.53,-2.2c-4.03,-5.89 -7.9,-11.98 -11.36,-18.26c-11.46,-20.78 -19.36,-41.52 -24.67,-62.04c-2.58,-10.39 -4.59,-20.51 -5.85,-30.9c-0.63,-5.19 -1.19,-10.14 -1.48,-15.39c-0.08,-1.28 -0.15,-2.57 -0.21,-3.85c-0.06,-1.29 -0.11,-2.57 -0.16,-3.86c-0.04,-1.29 -0.08,-2.57 -0.1,-3.86c-0.03,-1.29 -0.04,-2.57 -0.05,-3.86c-0.06,-5.01 0.15,-10.38 0.43,-15.48c0.04,-0.64 0.08,-1.28 0.12,-1.92c0.04,-0.64 0.08,-1.28 0.13,-1.92c0.05,-0.64 0.09,-1.28 0.14,-1.92c0.05,-0.64 0.1,-1.28 0.16,-1.92c0.05,-0.64 0.11,-1.29 0.17,-1.93c0.06,-0.64 0.12,-1.29 0.19,-1.93c0.07,-0.64 0.14,-1.29 0.21,-1.93c0.07,-0.64 0.15,-1.28 0.23,-1.93c1.27,-10.46 3.01,-20.49 5.58,-30.98M1324.14,-30.25c-1.94,0.95 -0.96,4.64 8.8,8.47c-4.73,6.62 8.37,16.6 7.11,4.89c-1.31,1.64 -2.59,3.13 -3.73,1.57c1.95,-2.82 3.76,-2.33 5.69,-4.36c-2.97,-2.37 -5.99,-3.29 -9.07,-2.1c-1.85,-7.45 -6.87,-9.41 -8.8,-8.47M1340.51,-38.23c0.02,4.33 9.39,15.33 15.31,10.57c-7.56,-5.9 -7.53,-12.78 -15.31,-10.57zM1123.98,-212.11c-6.54,0.38 -11.8,1.97 -14.71,5.23c10.68,2.76 24.31,2.81 33.84,3.57c8.66,0.6 13.8,1.7 10.11,5.27c-0.44,0.33 -0.9,0.7 -1.37,1.15c0.56,-0.41 0.99,-0.79 1.37,-1.15c4.94,-3.69 8.22,-0.16 11.29,3.4c3.34,3.85 6.54,7.84 11.91,2.54c-3.17,-1 -7.26,-1.02 -4.74,-8.24c8.56,-2.05 5.15,8.71 8.1,12.57c-0.23,-6.5 1.63,-6.66 3.7,-6.24c2.09,0.45 4.37,1.48 4.91,-2.76c-4.72,-2.14 -11.18,-4.64 -18.57,-7.15c-7.3,-2.33 -15.45,-4.78 -23.46,-6.24c-4,-0.76 -7.96,-1.36 -11.73,-1.73c-3.77,-0.34 -7.37,-0.41 -10.64,-0.21z" />
		<path id="Layer" class="shp2" d="M307,162.18c0.24,0.5 0.68,0.92 0.85,1.44c0.16,0.53 0.43,1.01 0.54,1.56c0.11,0.55 -0.36,1.32 -0.29,1.89c0.07,0.56 -0.43,1.36 -0.39,1.94c0.04,0.58 0.25,1.09 0.27,1.68c0.03,0.59 0.16,1.13 0.18,1.72c0.02,0.59 0.77,0.89 0.79,1.48c0.02,0.59 -0.85,1.56 -0.81,2.15c0.05,0.59 0.56,0.98 0.64,1.55c0.09,0.65 0.25,1.27 0.44,1.88c0.2,0.61 0.92,0.98 1.16,1.56c0.25,0.58 0.35,1.24 0.59,1.82c0.25,0.58 0.18,1.31 0.38,1.92c0.19,0.6 0.79,1 1.04,1.57c0.25,0.57 0.04,1.36 0.34,1.91c0.3,0.55 0.36,1.22 0.71,1.74c0.35,0.52 1.48,0.65 1.9,1.14c0.37,0.44 -0.07,1.3 0.37,1.7c0.44,0.4 1.76,0.34 2.24,0.72c0.48,0.38 0.08,1.22 0.57,1.6c0.49,0.37 1.36,0.53 1.84,0.9c0.48,0.38 1.36,0.52 1.79,0.92c0.13,0.12 0.94,-0.33 0.83,-0.46c-0.4,-0.48 -0.35,-1.2 -0.65,-1.73c-0.31,-0.53 -1.3,-0.7 -1.53,-1.27c-0.23,-0.57 0.27,-1.52 0.11,-2.12c-0.17,-0.6 -0.53,-1.1 -0.66,-1.72c-0.13,-0.62 0.01,-1.37 -0.11,-1.99c-0.11,-0.62 -0.06,-1.33 -0.18,-1.94c-0.12,-0.62 -0.57,-1.08 -0.7,-1.68c-0.14,-0.61 -0.58,-1.07 -0.76,-1.66c-0.18,-0.59 0.09,-1.4 -0.14,-1.97c-0.23,-0.57 -0.42,-1.16 -0.75,-1.68c-0.33,-0.52 -0.63,-1.07 -1.1,-1.53c-0.47,-0.46 -1.32,-0.75 -1.97,-1.14c-0.65,-0.38 -1,-0.91 -1.41,-1.39c-0.42,-0.49 -1.34,-0.77 -1.59,-1.33c-0.25,-0.57 -0.36,-1.2 -0.51,-1.81c-0.15,-0.61 -0.09,-1.31 -0.2,-1.93c-0.11,-0.56 -0.28,-1.08 -0.42,-1.63c-0.13,-0.54 -0.23,-1.1 -0.41,-1.62c-0.19,-0.52 -0.29,-1.08 -0.54,-1.57c-0.25,-0.5 -0.73,-0.9 -1.06,-1.37c-0.33,-0.47 -0.52,-0.99 -0.95,-1.42c-0.04,-0.04 -0.48,0.13 -0.45,0.17z" />
		<path id="Layer" class="shp3" d="M299.77,240.07c0.4,0.23 0.92,0.27 1.28,0.56c0.36,0.29 0.76,0.5 1.07,0.85c0.31,0.35 0.23,1.19 0.5,1.58c0.27,0.39 0.15,1.26 0.39,1.68c0.24,0.41 0.58,0.69 0.8,1.13c0.21,0.44 0.51,0.77 0.71,1.22c0.2,0.44 0.92,0.29 1.12,0.73c0.2,0.44 -0.27,1.63 -0.07,2.06c0.2,0.43 0.74,0.48 0.95,0.89c0.24,0.47 0.53,0.88 0.85,1.26c0.31,0.39 1.01,0.37 1.36,0.72c0.35,0.35 0.56,0.84 0.9,1.19c0.34,0.36 0.42,0.97 0.7,1.38c0.27,0.41 0.89,0.49 1.2,0.86c0.31,0.37 0.25,1.08 0.6,1.41c0.35,0.34 0.48,0.86 0.87,1.16c0.39,0.29 1.42,0.04 1.85,0.31c0.39,0.25 0.08,1.08 0.51,1.28c0.44,0.2 1.65,-0.22 2.13,-0.04c0.48,0.19 0.16,1.01 0.65,1.19c0.48,0.19 1.31,0.11 1.77,0.32c0.46,0.21 1.3,0.14 1.73,0.4c0.13,0.07 0.87,-0.47 0.76,-0.56c-0.41,-0.33 -0.4,-0.97 -0.73,-1.37c-0.32,-0.4 -1.28,-0.3 -1.54,-0.74c-0.26,-0.44 0.12,-1.38 -0.11,-1.86c-0.23,-0.47 -0.62,-0.82 -0.82,-1.31c-0.21,-0.49 -0.19,-1.18 -0.39,-1.69c-0.2,-0.5 -0.28,-1.12 -0.5,-1.62c-0.22,-0.5 -0.73,-0.75 -0.98,-1.22c-0.25,-0.47 -0.74,-0.73 -1.04,-1.16c-0.3,-0.44 -0.24,-1.23 -0.59,-1.63c-0.36,-0.4 -0.68,-0.82 -1.12,-1.15c-0.43,-0.32 -0.86,-0.64 -1.41,-0.84c-0.55,-0.2 -1.39,-0.08 -2.07,-0.1c-0.69,-0.03 -1.13,-0.3 -1.65,-0.5c-0.52,-0.2 -1.39,0.01 -1.78,-0.32c-0.39,-0.33 -0.7,-0.76 -1.03,-1.17c-0.33,-0.41 -0.52,-0.98 -0.84,-1.4c-0.29,-0.38 -0.62,-0.71 -0.94,-1.05c-0.32,-0.34 -0.61,-0.72 -0.96,-1.03c-0.36,-0.3 -0.67,-0.66 -1.07,-0.9c-0.4,-0.24 -0.95,-0.27 -1.42,-0.42c-0.46,-0.15 -0.83,-0.43 -1.35,-0.49c-0.05,-0.01 -0.32,0.38 -0.28,0.4z" />
		<path id="Layer" class="shp4" d="M202.19,240c0.66,-0.28 1.24,-0.77 1.93,-0.99c0.69,-0.21 1.34,-0.52 2.05,-0.67c0.71,-0.16 1.63,0.27 2.35,0.16c0.72,-0.11 1.65,0.35 2.39,0.28c0.73,-0.08 1.41,-0.32 2.15,-0.37c0.74,-0.06 1.44,-0.23 2.18,-0.27c0.75,-0.05 1.23,-0.82 1.97,-0.87c0.74,-0.05 1.81,0.82 2.55,0.75c0.74,-0.07 1.31,-0.6 2.03,-0.7c0.82,-0.11 1.62,-0.28 2.41,-0.49c0.79,-0.21 1.38,-0.95 2.15,-1.21c0.77,-0.26 1.6,-0.36 2.37,-0.62c0.77,-0.26 1.66,-0.19 2.45,-0.39c0.78,-0.19 1.4,-0.81 2.16,-1.05c0.76,-0.24 1.68,-0.03 2.42,-0.32c0.74,-0.3 1.57,-0.34 2.29,-0.69c0.72,-0.35 1.15,-1.5 1.85,-1.91c0.63,-0.37 1.57,0.11 2.18,-0.33c0.61,-0.44 0.88,-1.79 1.47,-2.27c0.59,-0.48 1.52,-0.03 2.11,-0.51c0.59,-0.49 1.03,-1.38 1.63,-1.84c0.6,-0.47 1.04,-1.37 1.65,-1.79c0.19,-0.13 -0.12,-0.98 -0.31,-0.88c-0.71,0.39 -1.59,0.3 -2.34,0.59c-0.74,0.29 -1.24,1.3 -2.01,1.52c-0.77,0.21 -1.81,-0.34 -2.6,-0.19c-0.79,0.16 -1.52,0.51 -2.32,0.62c-0.81,0.12 -1.71,-0.04 -2.52,0.07c-0.81,0.1 -1.68,0.05 -2.49,0.16c-0.81,0.11 -1.5,0.58 -2.3,0.72c-0.8,0.14 -1.49,0.59 -2.27,0.78c-0.79,0.19 -1.75,-0.08 -2.53,0.17c-0.77,0.25 -1.57,0.45 -2.3,0.8c-0.74,0.35 -1.49,0.67 -2.17,1.16c-0.68,0.49 -1.22,1.38 -1.83,2.06c-0.61,0.68 -1.34,1.05 -2.03,1.5c-0.7,0.45 -1.2,1.4 -1.96,1.68c-0.76,0.28 -1.57,0.43 -2.36,0.61c-0.79,0.18 -1.66,0.16 -2.47,0.31c-0.72,0.14 -1.42,0.35 -2.13,0.52c-0.71,0.17 -1.43,0.31 -2.12,0.53c-0.69,0.22 -1.41,0.38 -2.07,0.67c-0.66,0.29 -1.24,0.81 -1.87,1.19c-0.63,0.38 -1.32,0.61 -1.91,1.09c-0.06,0.05 0.11,0.47 0.18,0.45" />
		<path id="Layer" class="shp5" d="M296.38,112.01c-0.52,0.94 -0.75,2.07 -1.36,2.95c-0.61,0.88 -1.11,1.84 -1.81,2.66c-0.7,0.82 -2.18,1.1 -2.94,1.86c-0.77,0.76 -2.3,0.98 -3.11,1.7c-0.81,0.73 -1.42,1.59 -2.27,2.28c-0.85,0.69 -1.53,1.5 -2.41,2.16c-0.87,0.67 -0.79,2.05 -1.65,2.73c-0.86,0.67 -2.92,0.41 -3.77,1.07c-0.85,0.67 -1.09,1.81 -1.91,2.5c-0.93,0.77 -1.78,1.62 -2.58,2.5c-0.81,0.87 -0.95,2.28 -1.7,3.21c-0.74,0.93 -1.72,1.66 -2.48,2.57c-0.76,0.91 -1.93,1.47 -2.79,2.29c-0.84,0.81 -1.14,2.09 -1.93,2.94c-0.79,0.86 -2.14,1.22 -2.86,2.13c-0.73,0.91 -1.77,1.53 -2.44,2.49c-0.66,0.96 -0.38,2.8 -1.01,3.82c-0.56,0.92 -2.12,0.9 -2.61,1.88c-0.48,0.98 0.11,3.01 -0.33,4.05c-0.45,1.05 -2,1.01 -2.45,2.06c-0.45,1.04 -0.43,2.55 -0.92,3.56c-0.49,1.01 -0.48,2.54 -1.03,3.51c-0.17,0.29 0.81,1.29 1,1.02c0.7,-0.99 1.95,-1.41 2.77,-2.28c0.82,-0.87 0.78,-2.6 1.67,-3.39c0.89,-0.78 2.66,-0.7 3.61,-1.45c0.94,-0.75 1.68,-1.7 2.66,-2.42c0.98,-0.72 2.29,-1.12 3.29,-1.83c1,-0.71 2.18,-1.25 3.17,-1.98c0.99,-0.73 1.54,-1.86 2.48,-2.63c0.94,-0.78 1.52,-1.88 2.38,-2.72c0.88,-0.85 2.34,-1.21 3.16,-2.13c0.8,-0.93 1.66,-1.81 2.34,-2.84c0.68,-1.03 1.37,-2.06 1.85,-3.25c0.48,-1.19 0.44,-2.78 0.65,-4.16c0.21,-1.39 0.82,-2.43 1.31,-3.58c0.49,-1.15 0.32,-2.8 1.02,-3.77c0.7,-0.98 1.56,-1.84 2.39,-2.74c0.82,-0.89 1.9,-1.59 2.75,-2.48c0.75,-0.8 1.43,-1.64 2.12,-2.48c0.7,-0.84 1.46,-1.63 2.09,-2.52c0.63,-0.88 1.35,-1.71 1.88,-2.67c0.53,-0.95 0.75,-2.12 1.14,-3.16c0.4,-1.03 0.99,-1.95 1.25,-3.07c0.03,-0.11 -0.57,-0.49 -0.62,-0.39z" />
	</g>
</svg>